<?xml version="1.0" encoding="UTF-8" standalone="no"?>
<!DOCTYPE svg PUBLIC "-//W3C//DTD SVG 1.1//EN"
 "http://www.w3.org/Graphics/SVG/1.1/DTD/svg11.dtd">
<!-- Generated by graphviz version 2.30.1 (20150306.0020)
 -->
<!-- Title: G Pages: 1 -->
<svg width="556pt" height="294pt"
 viewBox="0.00 0.00 555.53 294.19" xmlns="http://www.w3.org/2000/svg" xmlns:xlink="http://www.w3.org/1999/xlink">
<g id="graph0" class="graph" transform="scale(1 1) rotate(0) translate(4 290.191)">
<title>G</title>
<polygon fill="white" stroke="white" points="-4,5 -4,-290.191 552.531,-290.191 552.531,5 -4,5"/>
<g id="clust1" class="cluster"><title>cluster_0</title>
<polygon fill="none" stroke="black" points="0,-0 0,-252.641 317.58,-252.641 317.58,-0 0,-0"/>
<text text-anchor="middle" x="291.58" y="-237.441" font-family="Times,serif" font-size="14.00">&#45;0.874</text>
</g>
<g id="clust2" class="cluster"><title>cluster_1</title>
<polygon fill="none" stroke="black" points="326.247,-21.6669 326.247,-286.191 547.531,-286.191 547.531,-21.6669 326.247,-21.6669"/>
<text text-anchor="middle" x="521.531" y="-270.991" font-family="Times,serif" font-size="14.00">&#45;0.126</text>
</g>
<!-- 1 -->
<g id="node1" class="node"><title>1</title>
<ellipse fill="#caff70" stroke="#caff70" cx="41.7193" cy="-110.483" rx="41.9398" ry="26.7407"/>
<text text-anchor="middle" x="41.7193" y="-114.283" font-family="Times,serif" font-size="14.00">H10 (1)</text>
<text text-anchor="middle" x="41.7193" y="-99.2826" font-family="Times,serif" font-size="14.00">0.117</text>
</g>
<!-- 2 -->
<g id="node2" class="node"><title>2</title>
<ellipse fill="#caff70" stroke="#caff70" cx="119.395" cy="-122.457" rx="36.5405" ry="26.7407"/>
<text text-anchor="middle" x="119.395" y="-126.257" font-family="Times,serif" font-size="14.00">C1 (2)</text>
<text text-anchor="middle" x="119.395" y="-111.257" font-family="Times,serif" font-size="14.00">&#45;0.521</text>
</g>
<!-- 1&#45;&#45;2 -->
<g id="edge13" class="edge"><title>1&#45;&#45;2</title>
<path fill="none" stroke="black" d="M82.3769,-116.75C82.6705,-116.795 82.964,-116.841 83.2573,-116.886"/>
</g>
<!-- 5 -->
<g id="node5" class="node"><title>5</title>
<ellipse fill="#caff70" stroke="#caff70" cx="201.562" cy="-143.449" rx="36.5405" ry="26.7407"/>
<text text-anchor="middle" x="201.562" y="-147.249" font-family="Times,serif" font-size="14.00">C2 (5)</text>
<text text-anchor="middle" x="201.562" y="-132.249" font-family="Times,serif" font-size="14.00">0.757</text>
</g>
<!-- 2&#45;&#45;5 -->
<g id="edge10" class="edge"><title>2&#45;&#45;5</title>
<path fill="none" stroke="black" d="M154.241,-131.359C158.352,-132.41 162.549,-133.482 166.661,-134.533"/>
</g>
<!-- 4 -->
<g id="node4" class="node"><title>4</title>
<ellipse fill="#caff70" stroke="#caff70" cx="71.2325" cy="-191.744" rx="37.4533" ry="26.7407"/>
<text text-anchor="middle" x="71.2325" y="-195.544" font-family="Times,serif" font-size="14.00">H9 (4)</text>
<text text-anchor="middle" x="71.2325" y="-180.544" font-family="Times,serif" font-size="14.00">0.117</text>
</g>
<!-- 2&#45;&#45;4 -->
<g id="edge11" class="edge"><title>2&#45;&#45;4</title>
<path fill="none" stroke="black" d="M102.55,-146.69C97.8841,-153.402 92.8189,-160.689 88.1492,-167.407"/>
</g>
<!-- 3 -->
<g id="node3" class="node"><title>3</title>
<ellipse fill="#caff70" stroke="#caff70" cx="94.0514" cy="-43.0146" rx="37.4533" ry="26.7407"/>
<text text-anchor="middle" x="94.0514" y="-46.8146" font-family="Times,serif" font-size="14.00">H8 (3)</text>
<text text-anchor="middle" x="94.0514" y="-31.8146" font-family="Times,serif" font-size="14.00">0.117</text>
</g>
<!-- 2&#45;&#45;3 -->
<g id="edge12" class="edge"><title>2&#45;&#45;3</title>
<path fill="none" stroke="black" d="M110.956,-96.0036C108.22,-87.4277 105.187,-77.9196 102.453,-69.3521"/>
</g>
<!-- 7 -->
<g id="node7" class="node"><title>7</title>
<ellipse fill="#caff70" stroke="#caff70" cx="279.673" cy="-110.421" rx="36.5405" ry="26.7407"/>
<text text-anchor="middle" x="279.673" y="-114.221" font-family="Times,serif" font-size="14.00">C4 (7)</text>
<text text-anchor="middle" x="279.673" y="-99.2207" font-family="Times,serif" font-size="14.00">&#45;0.937</text>
</g>
<!-- 5&#45;&#45;7 -->
<g id="edge8" class="edge"><title>5&#45;&#45;7</title>
<path fill="none" stroke="black" d="M233.783,-129.825C238.406,-127.87 243.16,-125.859 247.777,-123.907"/>
</g>
<!-- 6 -->
<g id="node6" class="node"><title>6</title>
<ellipse fill="#caff70" stroke="#caff70" cx="195.612" cy="-225.771" rx="37.4533" ry="26.7407"/>
<text text-anchor="middle" x="195.612" y="-229.571" font-family="Times,serif" font-size="14.00">O3 (6)</text>
<text text-anchor="middle" x="195.612" y="-214.571" font-family="Times,serif" font-size="14.00">&#45;0.713</text>
</g>
<!-- 5&#45;&#45;6 -->
<g id="edge9" class="edge"><title>5&#45;&#45;6</title>
<path fill="none" stroke="black" d="M199.613,-170.404C198.956,-179.501 198.222,-189.654 197.564,-198.755"/>
</g>
<!-- 9 -->
<g id="node9" class="node"><title>9</title>
<ellipse fill="red" stroke="red" cx="363.016" cy="-124.524" rx="36.5405" ry="26.7407"/>
<text text-anchor="middle" x="363.016" y="-128.324" font-family="Times,serif" font-size="14.00">C5 (9)</text>
<text text-anchor="middle" x="363.016" y="-113.324" font-family="Times,serif" font-size="14.00">0.757</text>
</g>
<!-- 7&#45;&#45;9 -->
<g id="edge6" class="edge"><title>7&#45;&#45;9</title>
<path fill="none" stroke="black" d="M315.501,-116.484C319.296,-117.126 323.156,-117.779 326.953,-118.421"/>
</g>
<!-- 8 -->
<g id="node8" class="node"><title>8</title>
<ellipse fill="#caff70" stroke="#caff70" cx="275.861" cy="-26.8701" rx="41.9398" ry="26.7407"/>
<text text-anchor="middle" x="275.861" y="-30.6701" font-family="Times,serif" font-size="14.00">H11 (8)</text>
<text text-anchor="middle" x="275.861" y="-15.6701" font-family="Times,serif" font-size="14.00">0.189</text>
</g>
<!-- 7&#45;&#45;8 -->
<g id="edge7" class="edge"><title>7&#45;&#45;8</title>
<path fill="none" stroke="black" d="M278.446,-83.5249C278.015,-74.0794 277.53,-63.4667 277.099,-54.002"/>
</g>
<!-- 11 -->
<g id="node11" class="node"><title>11</title>
<ellipse fill="red" stroke="red" cx="429.661" cy="-176.733" rx="41.9398" ry="26.7407"/>
<text text-anchor="middle" x="429.661" y="-180.533" font-family="Times,serif" font-size="14.00">C6 (11)</text>
<text text-anchor="middle" x="429.661" y="-165.533" font-family="Times,serif" font-size="14.00">&#45;0.521</text>
</g>
<!-- 9&#45;&#45;11 -->
<g id="edge4" class="edge"><title>9&#45;&#45;11</title>
<path fill="none" stroke="black" d="M388.212,-144.262C393.077,-148.074 398.189,-152.078 403.097,-155.923"/>
</g>
<!-- 10 -->
<g id="node10" class="node"><title>10</title>
<ellipse fill="red" stroke="red" cx="399.74" cy="-48.537" rx="41.9398" ry="26.7407"/>
<text text-anchor="middle" x="399.74" y="-52.337" font-family="Times,serif" font-size="14.00">O7 (10)</text>
<text text-anchor="middle" x="399.74" y="-37.337" font-family="Times,serif" font-size="14.00">&#45;0.713</text>
</g>
<!-- 9&#45;&#45;10 -->
<g id="edge5" class="edge"><title>9&#45;&#45;10</title>
<path fill="none" stroke="black" d="M375.449,-98.7983C379.278,-90.876 383.492,-82.1567 387.32,-74.2362"/>
</g>
<!-- 14 -->
<g id="node14" class="node"><title>14</title>
<ellipse fill="red" stroke="red" cx="496.269" cy="-219.349" rx="46.8387" ry="26.7407"/>
<text text-anchor="middle" x="496.269" y="-223.149" font-family="Times,serif" font-size="14.00">H14 (14)</text>
<text text-anchor="middle" x="496.269" y="-208.149" font-family="Times,serif" font-size="14.00">0.117</text>
</g>
<!-- 11&#45;&#45;14 -->
<g id="edge1" class="edge"><title>11&#45;&#45;14</title>
<path fill="none" stroke="black" d="M459.458,-195.797C461.259,-196.949 463.074,-198.111 464.882,-199.267"/>
</g>
<!-- 13 -->
<g id="node13" class="node"><title>13</title>
<ellipse fill="red" stroke="red" cx="500.862" cy="-132.354" rx="46.8387" ry="26.7407"/>
<text text-anchor="middle" x="500.862" y="-136.154" font-family="Times,serif" font-size="14.00">H13 (13)</text>
<text text-anchor="middle" x="500.862" y="-121.154" font-family="Times,serif" font-size="14.00">0.117</text>
</g>
<!-- 11&#45;&#45;13 -->
<g id="edge2" class="edge"><title>11&#45;&#45;13</title>
<path fill="none" stroke="black" d="M459.857,-157.912C462.889,-156.022 465.974,-154.099 469.023,-152.199"/>
</g>
<!-- 12 -->
<g id="node12" class="node"><title>12</title>
<ellipse fill="red" stroke="red" cx="423.766" cy="-259.321" rx="46.8387" ry="26.7407"/>
<text text-anchor="middle" x="423.766" y="-263.121" font-family="Times,serif" font-size="14.00">H12 (12)</text>
<text text-anchor="middle" x="423.766" y="-248.121" font-family="Times,serif" font-size="14.00">0.117</text>
</g>
<!-- 11&#45;&#45;12 -->
<g id="edge3" class="edge"><title>11&#45;&#45;12</title>
<path fill="none" stroke="black" d="M427.731,-203.775C427.079,-212.902 426.352,-223.087 425.701,-232.218"/>
</g>
</g>
</svg>
